<?xml version="1.0" encoding="utf-8"?>
<!-- Generator: Adobe Illustrator 18.1.1, SVG Export Plug-In . SVG Version: 6.00 Build 0)  -->
<svg version="1.1" id="Layer_1" xmlns="http://www.w3.org/2000/svg" xmlns:xlink="http://www.w3.org/1999/xlink" x="0px" y="0px"
	 viewBox="0 0 459.2 453.1" enable-background="new 0 0 459.2 453.1" xml:space="preserve">
<path fill="#8E191D" stroke="#8E191D" stroke-miterlimit="10" d="M170.6,146.4h-28.2c0-30.4-5.4-84,21.8-111.2
	C201.8-2.4,258.1,2.8,291.4,36c21.3,21.3,18.2,74.4,18.2,74.4h-26.2c0-35.8-2.4-74.4-57.6-74.4s-55.2,55.2-55.2,71.2
	C170.6,122.4,170.6,147.2,170.6,146.4z"/>
<path fill="#8E191D" stroke="#8E191D" stroke-width="2.8892" stroke-miterlimit="10" d="M325.2,365.1h-192c-13.8,0-25-11.2-25-25
	V172.8c0-13.8,11.2-25,25-25h192c13.8,0,25,11.2,25,25v167.3C350.2,353.9,338.9,365.1,325.2,365.1z"/>
<circle fill="#FFFFFF" stroke="#FFFFFF" stroke-width="3.044" stroke-miterlimit="10" cx="228.8" cy="242.2" r="23.6"/>
<polygon fill="#FFFFFF" stroke="#FFFFFF" stroke-width="3.044" stroke-miterlimit="10" points="205.8,301.8 255.4,301.8 
	238.6,254.6 219.4,254.6 "/>
<polygon fill="#8E191D" stroke="#8E191D" stroke-width="2.8892" stroke-miterlimit="10" points="350.6,199.8 350.6,269.4 453,168.6 
	453,134.2 "/>
<polygon fill="#8E191D" stroke="#8E191D" stroke-width="2.8892" stroke-miterlimit="10" points="111.4,252.8 111.4,183.2 9,284 
	9,318.4 "/>
<path fill="#FFFFFF" stroke="#8E191D" stroke-width="21.4278" stroke-miterlimit="10" d="M386.8,436.9h-310c-24.8,0-45-20.2-45-45
	v-6.4c0-24.8,20.2-45,45-45h310c24.8,0,45,20.2,45,45v6.4C431.8,416.6,411.5,436.9,386.8,436.9z"/>
<g>
	<path fill="#8E191D" stroke="#8E191D" stroke-width="0.9402" stroke-miterlimit="10" d="M134.1,415.8h-2.7c-2.2,0-4-1.8-4-4v-45.6
		c0-2.2,1.8-4,4-4h2.7c2.2,0,4,1.8,4,4v45.6C138.1,414,136.3,415.8,134.1,415.8z"/>
	<path fill="#8E191D" stroke="#8E191D" stroke-width="1.0006" stroke-miterlimit="10" d="M159.9,406.4l-0.5,0.5
		c-1.5,1.6-4.3,2-6.1,0.8l-46.1-29.6c-2.6-1.6-3-4.8-0.9-7.1l0.5-0.5c1.5-1.6,4.3-2,6.1-0.8l46.1,29.6
		C161.5,401,161.9,404.2,159.9,406.4z"/>
	<path fill="#8E191D" stroke="#8E191D" stroke-width="1.0006" stroke-miterlimit="10" d="M159.4,370.5l0.3,0.6
		c0.9,2,0.2,4.7-1.6,5.9l-45,31.2c-2.5,1.7-5.6,0.9-6.9-1.9l-0.3-0.6c-0.9-2-0.2-4.7,1.6-5.9l45-31.2
		C155.1,366.9,158.2,367.7,159.4,370.5z"/>
</g>
<g>
	<path fill="#8E191D" stroke="#8E191D" stroke-width="0.9402" stroke-miterlimit="10" d="M323.4,415.8h-2.7c-2.2,0-4-1.8-4-4v-45.6
		c0-2.2,1.8-4,4-4h2.7c2.2,0,4,1.8,4,4v45.6C327.4,414,325.6,415.8,323.4,415.8z"/>
	<path fill="#8E191D" stroke="#8E191D" stroke-width="1.0006" stroke-miterlimit="10" d="M349.2,406.4l-0.5,0.5
		c-1.5,1.6-4.3,2-6.1,0.8l-46.1-29.6c-2.6-1.6-3-4.8-0.9-7.1l0.5-0.5c1.5-1.6,4.3-2,6.1-0.8l46.1,29.6
		C350.8,401,351.3,404.2,349.2,406.4z"/>
	<path fill="#8E191D" stroke="#8E191D" stroke-width="1.0006" stroke-miterlimit="10" d="M348.8,370.5l0.3,0.6
		c0.9,2,0.2,4.7-1.6,5.9l-45,31.2c-2.5,1.7-5.6,0.9-6.9-1.9l-0.3-0.6c-0.9-2-0.2-4.7,1.6-5.9l45-31.2
		C344.4,366.9,347.5,367.7,348.8,370.5z"/>
</g>
<g>
	<path fill="#8E191D" stroke="#8E191D" stroke-width="0.9402" stroke-miterlimit="10" d="M228.9,415.8h-2.7c-2.2,0-4-1.8-4-4v-45.6
		c0-2.2,1.8-4,4-4h2.7c2.2,0,4,1.8,4,4v45.6C232.9,414,231.1,415.8,228.9,415.8z"/>
	<path fill="#8E191D" stroke="#8E191D" stroke-width="1.0006" stroke-miterlimit="10" d="M254.7,406.4l-0.5,0.5
		c-1.5,1.6-4.3,2-6.1,0.8L202,378.1c-2.6-1.6-3-4.8-0.9-7.1l0.5-0.5c1.5-1.6,4.3-2,6.1-0.8l46.1,29.6
		C256.3,401,256.8,404.2,254.7,406.4z"/>
	<path fill="#8E191D" stroke="#8E191D" stroke-width="1.0006" stroke-miterlimit="10" d="M254.3,370.5l0.3,0.6
		c0.9,2,0.2,4.7-1.6,5.9l-45,31.2c-2.5,1.7-5.6,0.9-6.9-1.9l-0.3-0.6c-0.9-2-0.2-4.7,1.6-5.9l45-31.2
		C249.9,366.9,253,367.7,254.3,370.5z"/>
</g>
<path fill="#8E191D" stroke="#8E191D" stroke-width="1.2598" stroke-miterlimit="10" d="M206.1,93.3h-3c-3.2,0-5.8-2.6-5.8-5.8V70.9
	c0-3.2,2.6-5.8,5.8-5.8h3c3.2,0,5.8,2.6,5.8,5.8v16.6C211.9,90.7,209.3,93.3,206.1,93.3z"/>
<path fill="#8E191D" stroke="#8E191D" stroke-width="1.2598" stroke-miterlimit="10" d="M252.3,93.3h-3c-3.2,0-5.8-2.6-5.8-5.8V70.9
	c0-3.2,2.6-5.8,5.8-5.8h3c3.2,0,5.8,2.6,5.8,5.8v16.6C258,90.7,255.4,93.3,252.3,93.3z"/>
<path fill="#8E191D" stroke="#8E191D" stroke-width="1.2598" stroke-miterlimit="10" d="M259.5,129.2h-60.8c-4.2,0-7.7-3.5-7.7-7.7
	v0c0-4.2,3.5-7.7,7.7-7.7h60.8c4.2,0,7.7,3.5,7.7,7.7v0C267.2,125.8,263.7,129.2,259.5,129.2z"/>
</svg>
